# xmcd
#
# Track frame offsets:
#	150
#	16222
#	31089
#	49084
#	84881
#	102245
#	127117
#	144129
#	167379
#	188991
#	212513
#	229875
#	254530
#	288489
#	299762
#	314047
#
# Disc length: 4535 seconds
#
# Revision: 0
# Processed by: cddbd v1.5.1PL0 Copyright (c) Steve Scherf et al.
# Submitted via: EasyCDDAExtractor 8.1.4.1
#
DISCID=e411b510
DTITLE=Various Artist - Best of Blues CD 1
DYEAR=2001
DGENRE=Blues
TTITLE0=Jonny Lang - Back For A Taste Of You
TTITLE1=Eric Clapton - I've Got A Rock' N' Roll
TTITLE2=Robert Cray - I Wonder
TTITLE3=Gary Moore - Need Your Love So Bad
TTITLE4=Ben Harper - Walk Away
TTITLE5=Robert Cray - Will You Think Of Me
TTITLE6=Eric Clapton - Wonderful Tonight
TTITLE7=Jonny Lang - Darker Side
TTITLE8=Eric Clapton - Layla
TTITLE9=James Colin - Crazy Over You
TTITLE10=The Blues Brothers - Peter Gunn Theme
TTITLE11=James Colin - Why'd You Lie
TTITLE12=Calvin Russel - Crossroads
TTITLE13=Gary Moore - Midnight Blues
TTITLE14=Eric Clapton - How Long Blues
TTITLE15=Santana - Love Of My Life
EXTD=
EXTT0=
EXTT1=
EXTT2=
EXTT3=
EXTT4=
EXTT5=
EXTT6=
EXTT7=
EXTT8=
EXTT9=
EXTT10=
EXTT11=
EXTT12=
EXTT13=
EXTT14=
EXTT15=
PLAYORDER=
